<svg width="152" height="27" viewBox="0 0 152 27" fill="none" xmlns="http://www.w3.org/2000/svg">
<path d="M14.0205 0.00537109L17.0503 9.33008H26.8548L18.9228 15.0931L21.9526 24.4178L14.0205 18.6548L6.08841 24.4178L9.11819 15.0931L1.18612 9.33008H10.9907L14.0205 0.00537109Z" fill="#FFC042"/>
<path d="M45.0102 0.00537109L48.04 9.33008H57.8446L49.9125 15.0931L52.9423 24.4178L45.0102 18.6548L37.0782 24.4178L40.1079 15.0931L32.1759 9.33008H41.9804L45.0102 0.00537109Z" fill="#FFC042"/>
<path d="M76 0.00537109L79.0298 9.33008H88.8343L80.9023 15.0931L83.932 24.4178L76 18.6548L68.0679 24.4178L71.0977 15.0931L63.1656 9.33008H72.9702L76 0.00537109Z" fill="#FFC042"/>
<path d="M106.99 0.00537109L110.02 9.33008H119.824L111.892 15.0931L114.922 24.4178L106.99 18.6548L99.0576 24.4178L102.087 15.0931L94.1554 9.33008H103.96L106.99 0.00537109Z" fill="#FFC042"/>
<path d="M137.979 0.00537109L141.009 9.33008H150.814L142.882 15.0931L145.912 24.4178L137.979 18.6548L130.047 24.4178L133.077 15.0931L125.145 9.33008H134.95L137.979 0.00537109Z" fill="#D0CFD4"/>
</svg>
